<mxfile host="app.diagrams.net" modified="2024-01-30T03:23:02.585Z" agent="Mozilla/5.0 (Windows NT 10.0; Win64; x64) AppleWebKit/537.36 (KHTML, like Gecko) Chrome/121.0.0.0 Safari/537.36 Edg/121.0.0.0" version="23.0.2" etag="H1xTJ2YBXLMGAn4_YCZ_" type="github">
  <diagram name="Page-1" id="Gz3QivCtY7YxrN8YMUWP">
    <mxGraphModel>
      <root>
        <mxCell id="0" />
        <mxCell id="1" parent="0" />
      </root>
    </mxGraphModel>
  </diagram>
</mxfile>
